<?xml version="1.0" standalone="no"?>
<!DOCTYPE svg PUBLIC "-//W3C//DTD SVG 20010904//EN"
 "http://www.w3.org/TR/2001/REC-SVG-20010904/DTD/svg10.dtd">
<svg version="1.0" xmlns="http://www.w3.org/2000/svg"
 width="393.000000pt" height="393.000000pt" viewBox="0 0 393.000000 393.000000"
 preserveAspectRatio="xMidYMid meet">
<metadata>
Created by potrace 1.14, written by Peter Selinger 2001-2017
</metadata>
<g transform="translate(0.000000,393.000000) scale(0.100000,-0.100000)"
fill="#000000" stroke="none">
<path d="M480 2907 c0 -2 -54 -163 -120 -358 -67 -195 -123 -361 -125 -369 -2
-8 -24 -75 -50 -149 -25 -74 -42 -138 -38 -142 20 -20 314 -112 394 -124 24
-3 55 -8 69 -10 14 -2 39 -6 55 -9 17 -2 66 -8 110 -11 268 -22 457 -71 733
-190 224 -97 356 -192 406 -290 l25 -50 1 556 c0 473 -2 558 -14 569 -8 6 -22
34 -31 61 -26 77 -92 133 -252 213 -173 86 -398 158 -539 171 -38 3 -85 8
-104 10 -19 2 -62 7 -95 11 -102 10 -217 40 -372 95 -29 10 -53 17 -53 16z"/>
<path d="M3315 2866 c-66 -23 -124 -43 -130 -43 -5 -1 -39 -7 -75 -13 -71 -13
-93 -15 -190 -25 -186 -18 -223 -25 -365 -73 -44 -14 -82 -27 -85 -27 -50 -13
-242 -105 -305 -146 -82 -53 -118 -95 -134 -155 -6 -23 -18 -47 -26 -54 -13
-11 -15 -89 -14 -594 1 -319 4 -570 6 -556 2 14 5 30 7 35 2 6 3 12 3 15 -3
13 69 104 108 137 77 64 236 147 427 224 99 39 276 95 333 105 16 2 37 7 46
10 9 2 34 6 55 9 22 2 57 6 79 9 22 3 72 8 110 11 39 3 80 8 91 10 12 2 48 7
80 11 33 4 61 8 64 9 3 1 19 4 35 8 17 4 39 9 50 11 27 6 203 61 238 75 15 6
38 15 52 21 l24 9 -70 203 c-106 304 -226 653 -256 741 -15 42 -29 76 -32 76
-3 -1 -60 -21 -126 -43z"/>
<path d="M104 1788 c-15 -24 -51 -168 -44 -173 13 -8 210 -52 265 -60 28 -3
66 -9 85 -12 19 -3 175 -6 345 -8 171 -1 321 -4 335 -8 14 -3 43 -8 65 -12 22
-3 69 -13 105 -21 36 -9 76 -18 90 -20 40 -8 217 -62 242 -74 22 -11 22 -11
-2 9 -55 44 -418 175 -570 206 -39 8 -172 25 -235 30 -38 3 -83 8 -100 10 -16
2 -52 7 -80 10 -83 10 -243 51 -364 94 -128 46 -127 46 -137 29z"/>
<path d="M3730 1770 c-72 -27 -192 -65 -238 -75 -12 -3 -32 -7 -44 -10 -72
-16 -174 -30 -293 -40 -38 -4 -81 -8 -95 -10 -14 -2 -45 -7 -70 -10 -81 -11
-188 -35 -224 -50 -20 -9 -36 -13 -36 -11 0 3 -17 -2 -37 -10 -20 -9 -44 -17
-52 -19 -28 -5 -306 -126 -316 -137 -7 -8 -6 -9 2 -4 42 23 351 105 463 122
19 3 46 8 60 11 14 3 162 7 330 8 168 1 328 5 355 9 141 19 331 58 344 71 6 6
-18 112 -35 153 -7 17 -19 32 -26 31 -7 0 -47 -13 -88 -29z"/>
<path d="M47 1513 c-3 -5 -8 -33 -11 -63 -3 -30 -9 -74 -12 -96 l-6 -42 99 -8
c178 -14 337 -9 488 15 33 5 76 12 95 15 19 3 46 8 60 11 164 35 519 21 761
-30 41 -8 79 -15 84 -14 14 0 -161 58 -225 74 -92 22 -193 45 -220 49 -19 3
-46 8 -59 10 -52 11 -162 17 -276 16 -283 -4 -343 -3 -405 4 -90 9 -234 34
-301 52 -66 16 -66 16 -72 7z"/>
<path d="M3792 1500 c-39 -10 -89 -21 -110 -24 -20 -2 -71 -10 -112 -17 -72
-11 -195 -13 -470 -9 -69 1 -150 -1 -180 -4 -49 -6 -77 -10 -195 -32 -105 -19
-415 -109 -415 -120 0 -3 9 -3 19 1 11 3 30 8 43 10 13 3 34 7 48 10 55 12 77
15 135 21 33 3 63 8 66 10 12 7 184 18 279 18 136 -1 244 -12 450 -50 94 -16
445 -24 505 -10 11 2 30 5 42 5 17 1 21 6 18 24 -2 12 -6 51 -10 87 -7 80 -13
100 -28 99 -7 -1 -45 -9 -85 -19z"/>
<path d="M870 1269 c-71 -8 -138 -18 -170 -24 -25 -5 -56 -10 -115 -20 -121
-19 -300 -24 -472 -11 l-103 7 -1 -38 c0 -21 -3 -65 -5 -97 l-4 -59 148 6
c150 7 183 10 262 28 25 5 54 11 65 14 21 4 121 32 215 60 95 28 154 43 190
49 19 3 44 8 56 10 34 7 126 19 174 22 89 6 376 6 405 -1 21 -4 25 -3 15 3
-20 13 -149 35 -285 48 -88 9 -312 11 -375 3z"/>
<path d="M2797 1274 c-1 -1 -33 -4 -72 -8 -167 -15 -194 -18 -273 -34 l-83
-17 248 0 c260 0 303 -3 463 -37 30 -6 60 -12 65 -14 6 -1 35 -9 65 -19 139
-43 260 -76 310 -85 30 -6 66 -13 80 -16 14 -3 94 -8 178 -11 l153 -6 -3 87
c-1 47 -5 91 -8 96 -4 7 -39 7 -100 2 -151 -13 -367 -6 -495 16 -83 15 -135
23 -170 27 -16 2 -50 6 -75 10 -40 6 -277 14 -283 9z"/>
</g>
</svg>
